# xmcd
#
# Track frame offsets:
#	150
#	13137
#	25296
#	37984
#	50174
#	64399
#	80707
#	92363
#	107810
#	122574
#	139678
#	157776
#	176459
#	186970
#	200668
#	230148
#	250291
#	273290
#	291460
#	303211
#
# Disc length: 4185 seconds
#
# Revision: 2
# Processed by: cddbd v1.5.2PL0 Copyright (c) Steve Scherf et al.
# Submitted via: EZCDAudioConverter 5.0.2.1
#
DISCID=1f105714
DTITLE=Various Artist - Spirit Of Blues - Blues Spirit
DYEAR=2010
DGENRE=Blues
TTITLE0=Elmore James - Dust My Broom
TTITLE1=Neal Pattman - Momma Whoopin' Blues
TTITLE2=Willie Mae "Big Mama" Thomton - Hound Dog
TTITLE3=Marie Knight - You Got To Move
TTITLE4=John Dee Holeman - Hello Central
TTITLE5=Big Bill Morganfield - Whiskey
TTITLE6=Brownie McGhee - Not Guilty Blues
TTITLE7=Captain Luke - Polk Salad Annie
TTITLE8=Carolina Chocolate Drops - Black Eye Blues
TTITLE9=Cora Mae Bryant - Ticket Agent
TTITLE10=Drink Small - Widow Woman
TTITLE11=Little Charlie and The Nightcats - Livin' Good
TTITLE12=Clarence Frogman Henry - Ain't Got No Home
TTITLE13=Mighty Mo Rogers - Hambone Blues
TTITLE14=Katie Webster - On The Run
TTITLE15=Magic Slim and James Cotton - When The Levee Breaks
TTITLE16=Albert Collins - Master Charge
TTITLE17=Marcia Ball - I'm Coming Down With The Blues
TTITLE18=Pura Fe - Going Home
TTITLE19=Sonny Terry and Brownie McGhee - Stranger Blues
EXTD=
EXTT0=
EXTT1=
EXTT2=
EXTT3=
EXTT4=
EXTT5=
EXTT6=
EXTT7=
EXTT8=
EXTT9=
EXTT10=
EXTT11=
EXTT12=
EXTT13=
EXTT14=
EXTT15=
EXTT16=
EXTT17=
EXTT18=
EXTT19=
PLAYORDER=
